<svg xmlns="http://www.w3.org/2000/svg" viewBox="0 0 512.003 512.003" style="enable-background:new 0 0 512.003 512.003" xml:space="preserve" width="512" height="512"><path style="fill:none;stroke:#000;stroke-width:15;stroke-linecap:round;stroke-linejoin:round;stroke-miterlimit:10" d="M177.586 162.814h-14.771v-31.063h62.125v31.063h-12.354m12.354-31.063h62.125v31.062H224.94zm62.125 0h62.125v31.062h-62.125zm31.063-31.062h31.063v31.062h-31.063z"/><path transform="rotate(180 178.346 116.22)" style="fill:none;stroke:#000;stroke-width:15;stroke-linecap:round;stroke-linejoin:round;stroke-miterlimit:10" d="M162.815 100.689h31.062v31.062h-31.062z"/><path style="fill:none;stroke:#000;stroke-width:15;stroke-linecap:round;stroke-linejoin:round;stroke-miterlimit:10" d="M224.94 69.626h62.125v31.062H224.94zm62.125 0h62.125v31.062h-62.125zm-93.188 31.063h62.125v31.062h-62.125zm62.126 0h62.125v31.062h-62.125zm0-62.125h62.125v31.062h-62.125zm-93.188 14.551 19.181 19.181 33.732-33.732m91.432 391.398-33.626-19.414m83.824-5.406-60.527-34.945m97.274 2.359-73.977-42.711M117.9 372.556l17.628-10.178c11.143-6.433 14.96-20.681 8.527-31.824h0c-6.433-11.143-20.681-14.96-31.824-8.527l-17.628 10.178c-11.143 6.433-14.96 20.681-8.527 31.824h0c6.433 11.143 20.681 14.961 31.824 8.527zm23.297 40.352 40.201-23.21c11.143-6.433 14.96-20.681 8.527-31.824h0c-6.433-11.143-20.681-14.961-31.824-8.527l-40.201 23.21c-11.143 6.433-14.96 20.681-8.527 31.824h0c6.433 11.142 20.681 14.96 31.824 8.527zm36.747 32.586 36.597-21.129c11.143-6.433 14.96-20.681 8.527-31.824h0c-6.433-11.143-20.681-14.961-31.824-8.527l-36.597 21.129c-11.143 6.433-14.96 20.681-8.527 31.824h0c6.433 11.142 20.681 14.96 31.824 8.527z"/><path style="fill:none;stroke:#000;stroke-width:15;stroke-linecap:round;stroke-linejoin:round;stroke-miterlimit:10" d="m228.142 470.314 13.451-7.766c11.143-6.433 14.96-20.681 8.527-31.824h0c-6.433-11.143-20.681-14.96-31.824-8.527l-13.451 7.766c-11.143 6.433-14.96 20.681-8.527 31.824h0c6.433 11.142 20.681 14.96 31.824 8.527z"/><path style="fill:none;stroke:#000;stroke-width:15;stroke-linecap:round;stroke-linejoin:round;stroke-miterlimit:10" d="m403.83 324.384 13.57 7.82c7.47 4.31 11.65 12.15 11.65 20.2 0 3.95-1 7.96-3.12 11.63-6.43 11.14-20.68 14.96-31.82 8.52 7.47 4.32 11.65 12.15 11.65 20.2 0 3.95-1.01 7.96-3.13 11.63-6.43 11.14-20.68 14.96-31.82 8.52l-13.45-7.76c7.47 4.31 11.65 12.15 11.65 20.2 0 3.95-1 7.95-3.12 11.62-6.44 11.15-20.69 14.96-31.83 8.53l-26.9-15.53c7.47 4.31 11.65 12.15 11.65 20.2 0 3.95-1 7.95-3.12 11.62-6.44 11.15-20.68 14.96-31.83 8.53l-32.51-18.77M40.588 285.359 7.5 266.254l62.13-107.6 125.74 72.59a24.42 24.42 0 0 0 6.72 2.66m-93.93 90.47-37.834-21.845m170.145-44.038v11.594c0 1.331-.074 2.645-.219 3.938"/><path style="fill:none;stroke:#000;stroke-width:15;stroke-linecap:round;stroke-linejoin:round;stroke-miterlimit:10" d="m452.988 295.998 51.514-29.742-62.125-107.604-102.687 59.287c-11.214 6.474-23.982 9.542-36.931 9.489h-83.881c-13.807 0-25 11.193-25 25v52.656h11.594c17.999 0 32.824-13.586 34.781-31.062h10.476c7.332 0 14.127 3.985 17.574 10.457 6.803 12.778 20.539 21.304 36.188 20.561 9.6-.456 18.352-4.475 24.924-10.763 4.893-4.682 12.205-5.747 18.072-2.366l56.342 32.471 18.514-10.689"/><path style="fill:none;stroke:#000;stroke-width:15;stroke-linecap:round;stroke-linejoin:round;stroke-miterlimit:10" d="M329.414 294.276c9.242-8.843 14.172-22.172 11.089-36.388"/></svg>