<svg xmlns="http://www.w3.org/2000/svg" style="enable-background:new 0 0 512 512" xml:space="preserve" width="512" height="512"><path style="fill:none;stroke:#000;stroke-width:15;stroke-linecap:round;stroke-linejoin:round;stroke-miterlimit:10" d="M147.295 233.368v-70.58h31.055v68.401m93.178-3.1v-65.301h31.056v69.771m-93.168 1.339V131.732h31.056v103.116m124.233-3.729v-54.863m-31.055 57.552V100.676h31.055v42.905M113.72 443.737l-.28-.161c-9.5-5.485-12.755-17.632-7.27-27.132l20.185-34.961c5.485-9.5 17.632-12.755 27.132-7.27l.28.161c9.5 5.485 12.755 17.632 7.27 27.132l-20.185 34.961c-5.485 9.5-17.632 12.755-27.132 7.27z"/><path style="fill:none;stroke:#000;stroke-width:15;stroke-linecap:round;stroke-linejoin:round;stroke-miterlimit:10" d="m148.401 463.76-.28-.161c-9.5-5.485-12.755-17.632-7.27-27.132l20.185-34.961c5.485-9.5 17.632-12.755 27.132-7.27l.28.162c9.5 5.485 12.755 17.632 7.27 27.132l-20.185 34.961c-5.485 9.499-17.632 12.754-27.132 7.269z"/><path style="fill:none;stroke:#000;stroke-width:15;stroke-linecap:round;stroke-linejoin:round;stroke-miterlimit:10" d="m183.083 483.784-.28-.161c-9.5-5.485-12.755-17.632-7.27-27.132l20.185-34.961c5.485-9.5 17.632-12.755 27.132-7.27l.28.161c9.5 5.485 12.755 17.632 7.27 27.132l-20.185 34.961c-5.485 9.499-17.633 12.754-27.132 7.27zm34.26-19.46 9.615-16.653c5.529-9.577 17.775-12.858 27.352-7.329h0c9.577 5.529 12.858 17.775 7.329 27.352l-9.615 16.653c-5.529 9.577-17.775 12.858-27.352 7.329h0c-9.577-5.529-12.858-17.775-7.329-27.352z"/><path style="fill:none;stroke:#000;stroke-width:15;stroke-linecap:round;stroke-linejoin:round;stroke-miterlimit:10" d="M299.042 462.902c10.661 6.155 14.314 19.788 8.159 30.449v0c-6.155 10.661-19.788 14.314-30.449 8.159l-25.938-15.309"/><path style="fill:none;stroke:#000;stroke-width:15;stroke-linecap:round;stroke-linejoin:round;stroke-miterlimit:10" d="M340.637 435.439c10.661 6.155 14.314 19.788 8.159 30.449v0c-6.155 10.661-19.788 14.314-30.449 8.159l-32.274-18.616"/><path style="fill:none;stroke:#000;stroke-width:15;stroke-linecap:round;stroke-linejoin:round;stroke-miterlimit:10" d="M366.264 398.758c10.661 6.155 14.314 19.788 8.159 30.449v0c-6.155 10.661-19.788 14.314-30.449 8.159l-38.608-22.29"/><path style="fill:none;stroke:#000;stroke-width:15;stroke-linecap:round;stroke-linejoin:round;stroke-miterlimit:10" d="m341.389 332.926 52.27 30.178c10.661 6.155 14.314 19.788 8.159 30.449h0c-6.155 10.661-19.788 14.314-30.449 8.159l-38.684-22.334"/><path style="fill:none;stroke:#000;stroke-width:15;stroke-linecap:round;stroke-linejoin:round;stroke-miterlimit:10" d="m442.348 211.377-35.021 8.779s-54.641 23.528-127.589 8.958c-15.537-3.416-32.911 2.016-40.721 6.525l-69.543 40.151c-12.334 7.121-16.56 22.893-9.439 35.227h0c7.121 12.334 22.893 16.56 35.227 9.439l46.903-27.079c26.34 28.566 52.755 43.407 99.224 39.549l52.27 30.178c27.13-3.244 28.529-4.96 48.689-20.655M69.655 342s22.306 11.996 26.8 21.956c4.747 10.623 8.838 34.802 16.495 40.745"/><path style="fill:none;stroke:#000;stroke-width:15;stroke-linecap:round;stroke-linejoin:round;stroke-miterlimit:10" d="M224.943 243.765c-25.434-25.735-66.429-3.637-93.174-12.736l-27.226-8.808-34.891-10.844m419.287 88.353v64.081h-46.594V192.994h46.594v74.05"/><path style="fill:none;stroke:#000;stroke-width:15;stroke-linecap:round;stroke-linejoin:round;stroke-miterlimit:10" d="M23.061 294.75v69.061h46.594V192.994H23.061v69.071m139.765-130.452 62.116-61.997L256 100.674 349.174 7.5"/><path style="fill:none;stroke:#000;stroke-width:15;stroke-linecap:round;stroke-linejoin:round;stroke-miterlimit:10" d="M318.116 7.5h31.058v31.058M117.023 61.235h0a11.007 11.007 0 0 0 10.543 7.844h7.548c6.729 0 12.183-5.455 12.183-12.183v0c0-6.728-5.455-12.183-12.183-12.183h-6.692c-6.728 0-12.183-5.455-12.183-12.183v0c0-6.728 5.455-12.183 12.183-12.183h5.979c4.861 0 9.146 3.188 10.543 7.844h0M131.768 7.5v12.847m0 48.732v12.847"/></svg>