<?xml version="1.0" encoding="UTF-8"?>
<svg xmlns="http://www.w3.org/2000/svg" xmlns:xlink="http://www.w3.org/1999/xlink" version="1.1" id="Capa_1" x="0px" y="0px" viewBox="0 0 512.003 512.003" style="enable-background:new 0 0 512.003 512.003;" xml:space="preserve" width="512" height="512">
<g>
	
		<polyline style="fill:none;stroke:#000000;stroke-width:15;stroke-linecap:round;stroke-linejoin:round;stroke-miterlimit:10;" points="&#10;&#9;&#9;177.586,162.814 162.815,162.814 162.815,131.751 224.94,131.751 224.94,162.814 212.586,162.814 &#9;"/>
	
		<rect x="224.94" y="131.751" style="fill:none;stroke:#000000;stroke-width:15;stroke-linecap:round;stroke-linejoin:round;stroke-miterlimit:10;" width="62.125" height="31.062"/>
	
		<rect x="287.065" y="131.751" style="fill:none;stroke:#000000;stroke-width:15;stroke-linecap:round;stroke-linejoin:round;stroke-miterlimit:10;" width="62.125" height="31.062"/>
	
		<rect x="318.128" y="100.689" style="fill:none;stroke:#000000;stroke-width:15;stroke-linecap:round;stroke-linejoin:round;stroke-miterlimit:10;" width="31.063" height="31.062"/>
	
		<rect x="162.815" y="100.689" transform="matrix(-1 4.473876e-11 -4.473876e-11 -1 356.6924 232.44)" style="fill:none;stroke:#000000;stroke-width:15;stroke-linecap:round;stroke-linejoin:round;stroke-miterlimit:10;" width="31.062" height="31.062"/>
	
		<rect x="224.94" y="69.626" style="fill:none;stroke:#000000;stroke-width:15;stroke-linecap:round;stroke-linejoin:round;stroke-miterlimit:10;" width="62.125" height="31.062"/>
	
		<rect x="287.065" y="69.626" style="fill:none;stroke:#000000;stroke-width:15;stroke-linecap:round;stroke-linejoin:round;stroke-miterlimit:10;" width="62.125" height="31.062"/>
	
		<rect x="193.877" y="100.689" style="fill:none;stroke:#000000;stroke-width:15;stroke-linecap:round;stroke-linejoin:round;stroke-miterlimit:10;" width="62.125" height="31.062"/>
	
		<rect x="256.003" y="100.689" style="fill:none;stroke:#000000;stroke-width:15;stroke-linecap:round;stroke-linejoin:round;stroke-miterlimit:10;" width="62.125" height="31.062"/>
	
		<rect x="256.003" y="38.564" style="fill:none;stroke:#000000;stroke-width:15;stroke-linecap:round;stroke-linejoin:round;stroke-miterlimit:10;" width="62.125" height="31.062"/>
	
		<polyline style="fill:none;stroke:#000000;stroke-width:15;stroke-linecap:round;stroke-linejoin:round;stroke-miterlimit:10;" points="&#10;&#9;&#9;162.815,53.115 181.996,72.296 215.728,38.564 &#9;"/>
	
		<line style="fill:none;stroke:#000000;stroke-width:15;stroke-linecap:round;stroke-linejoin:round;stroke-miterlimit:10;" x1="307.16" y1="429.962" x2="273.534" y2="410.548"/>
	
		<line style="fill:none;stroke:#000000;stroke-width:15;stroke-linecap:round;stroke-linejoin:round;stroke-miterlimit:10;" x1="357.358" y1="405.142" x2="296.831" y2="370.197"/>
	
		<line style="fill:none;stroke:#000000;stroke-width:15;stroke-linecap:round;stroke-linejoin:round;stroke-miterlimit:10;" x1="394.105" y1="372.556" x2="320.128" y2="329.845"/>
	<path style="fill:none;stroke:#000000;stroke-width:15;stroke-linecap:round;stroke-linejoin:round;stroke-miterlimit:10;" d="&#10;&#9;&#9;M117.9,372.556l17.628-10.178c11.143-6.433,14.96-20.681,8.527-31.824l0,0c-6.433-11.143-20.681-14.96-31.824-8.527l-17.628,10.178&#10;&#9;&#9;c-11.143,6.433-14.96,20.681-8.527,31.824l0,0C92.509,375.172,106.757,378.99,117.9,372.556z"/>
	<path style="fill:none;stroke:#000000;stroke-width:15;stroke-linecap:round;stroke-linejoin:round;stroke-miterlimit:10;" d="&#10;&#9;&#9;M141.197,412.908l40.201-23.21c11.143-6.433,14.96-20.681,8.527-31.824l0,0c-6.433-11.143-20.681-14.961-31.824-8.527&#10;&#9;&#9;l-40.201,23.21c-11.143,6.433-14.96,20.681-8.527,31.824l0,0C115.806,415.523,130.054,419.341,141.197,412.908z"/>
	<path style="fill:none;stroke:#000000;stroke-width:15;stroke-linecap:round;stroke-linejoin:round;stroke-miterlimit:10;" d="&#10;&#9;&#9;M177.944,445.494l36.597-21.129c11.143-6.433,14.96-20.681,8.527-31.824l0,0c-6.433-11.143-20.681-14.961-31.824-8.527&#10;&#9;&#9;l-36.597,21.129c-11.143,6.433-14.96,20.681-8.527,31.824l0,0C152.553,448.109,166.801,451.927,177.944,445.494z"/>
	<path style="fill:none;stroke:#000000;stroke-width:15;stroke-linecap:round;stroke-linejoin:round;stroke-miterlimit:10;" d="&#10;&#9;&#9;M228.142,470.314l13.451-7.766c11.143-6.433,14.96-20.681,8.527-31.824l0,0c-6.433-11.143-20.681-14.96-31.824-8.527l-13.451,7.766&#10;&#9;&#9;c-11.143,6.433-14.96,20.681-8.527,31.824l0,0C202.751,472.929,216.999,476.747,228.142,470.314z"/>
	<path style="fill:none;stroke:#000000;stroke-width:15;stroke-linecap:round;stroke-linejoin:round;stroke-miterlimit:10;" d="&#10;&#9;&#9;M403.83,324.384l13.57,7.82c7.47,4.31,11.65,12.15,11.65,20.2c0,3.95-1,7.96-3.12,11.63c-6.43,11.14-20.68,14.96-31.82,8.52&#10;&#9;&#9;c7.47,4.32,11.65,12.15,11.65,20.2c0,3.95-1.01,7.96-3.13,11.63c-6.43,11.14-20.68,14.96-31.82,8.52l-13.45-7.76&#10;&#9;&#9;c7.47,4.31,11.65,12.15,11.65,20.2c0,3.95-1,7.95-3.12,11.62c-6.44,11.15-20.69,14.96-31.83,8.53l-26.9-15.53&#10;&#9;&#9;c7.47,4.31,11.65,12.15,11.65,20.2c0,3.95-1,7.95-3.12,11.62c-6.44,11.15-20.68,14.96-31.83,8.53l-32.51-18.77"/>
	<path style="fill:none;stroke:#000000;stroke-width:15;stroke-linecap:round;stroke-linejoin:round;stroke-miterlimit:10;" d="&#10;&#9;&#9;M40.588,285.359L7.5,266.254l62.13-107.6l125.74,72.59c2.11,1.23,4.38,2.11,6.72,2.66"/>
	
		<line style="fill:none;stroke:#000000;stroke-width:15;stroke-linecap:round;stroke-linejoin:round;stroke-miterlimit:10;" x1="108.16" y1="324.374" x2="70.326" y2="302.529"/>
	<path style="fill:none;stroke:#000000;stroke-width:15;stroke-linecap:round;stroke-linejoin:round;stroke-miterlimit:10;" d="&#10;&#9;&#9;M240.471,258.491v11.594c0,1.331-0.074,2.645-0.219,3.938"/>
	<path style="fill:none;stroke:#000000;stroke-width:15;stroke-linecap:round;stroke-linejoin:round;stroke-miterlimit:10;" d="&#10;&#9;&#9;M452.988,295.998l51.514-29.742l-62.125-107.604L339.69,217.939c-11.214,6.474-23.982,9.542-36.931,9.489c-0.054,0-0.108,0-0.162,0&#10;&#9;&#9;h-83.719c-13.807,0-25,11.193-25,25v52.656h11.594c17.999,0,32.824-13.586,34.781-31.062h10.476&#10;&#9;&#9;c7.332,0,14.127,3.985,17.574,10.457c6.803,12.778,20.539,21.304,36.188,20.561c9.6-0.456,18.352-4.475,24.924-10.763&#10;&#9;&#9;c4.893-4.682,12.205-5.747,18.072-2.366l56.342,32.471l18.514-10.689"/>
	<path style="fill:none;stroke:#000000;stroke-width:15;stroke-linecap:round;stroke-linejoin:round;stroke-miterlimit:10;" d="&#10;&#9;&#9;M329.414,294.276c9.242-8.843,14.172-22.172,11.089-36.388"/>
</g>















</svg>
