<?xml version="1.0" encoding="UTF-8"?>
<svg xmlns="http://www.w3.org/2000/svg" xmlns:xlink="http://www.w3.org/1999/xlink" version="1.1" id="Capa_1" x="0px" y="0px" viewBox="0 0 512 512" style="enable-background:new 0 0 512 512;" xml:space="preserve" width="512" height="512">
<g>
	
		<polyline style="fill:none;stroke:#000000;stroke-width:15;stroke-linecap:round;stroke-linejoin:round;stroke-miterlimit:10;" points="&#10;&#9;&#9;147.295,233.368 147.295,162.788 178.35,162.788 178.35,231.189 &#9;"/>
	
		<polyline style="fill:none;stroke:#000000;stroke-width:15;stroke-linecap:round;stroke-linejoin:round;stroke-miterlimit:10;" points="&#10;&#9;&#9;271.528,228.089 271.528,162.788 302.584,162.788 302.584,232.559 &#9;"/>
	
		<polyline style="fill:none;stroke:#000000;stroke-width:15;stroke-linecap:round;stroke-linejoin:round;stroke-miterlimit:10;" points="&#10;&#9;&#9;209.416,233.898 209.416,131.732 240.472,131.732 240.472,234.848 &#9;"/>
	
		<line style="fill:none;stroke:#000000;stroke-width:15;stroke-linecap:round;stroke-linejoin:round;stroke-miterlimit:10;" x1="364.705" y1="231.119" x2="364.705" y2="176.256"/>
	
		<polyline style="fill:none;stroke:#000000;stroke-width:15;stroke-linecap:round;stroke-linejoin:round;stroke-miterlimit:10;" points="&#10;&#9;&#9;333.65,233.808 333.65,100.676 364.705,100.676 364.705,143.581 &#9;"/>
	<g>
		<path style="fill:none;stroke:#000000;stroke-width:15;stroke-linecap:round;stroke-linejoin:round;stroke-miterlimit:10;" d="&#10;&#9;&#9;&#9;M113.72,443.737l-0.28-0.161c-9.5-5.485-12.755-17.632-7.27-27.132l20.185-34.961c5.485-9.5,17.632-12.755,27.132-7.27l0.28,0.161&#10;&#9;&#9;&#9;c9.5,5.485,12.755,17.632,7.27,27.132l-20.185,34.961C135.367,445.967,123.22,449.222,113.72,443.737z"/>
		<path style="fill:none;stroke:#000000;stroke-width:15;stroke-linecap:round;stroke-linejoin:round;stroke-miterlimit:10;" d="&#10;&#9;&#9;&#9;M148.401,463.76l-0.28-0.161c-9.5-5.485-12.755-17.632-7.27-27.132l20.185-34.961c5.485-9.5,17.632-12.755,27.132-7.27l0.28,0.162&#10;&#9;&#9;&#9;c9.5,5.485,12.755,17.632,7.27,27.132l-20.185,34.961C170.048,465.99,157.901,469.245,148.401,463.76z"/>
		<path style="fill:none;stroke:#000000;stroke-width:15;stroke-linecap:round;stroke-linejoin:round;stroke-miterlimit:10;" d="&#10;&#9;&#9;&#9;M183.083,483.784l-0.28-0.161c-9.5-5.485-12.755-17.632-7.27-27.132l20.185-34.961c5.485-9.5,17.632-12.755,27.132-7.27&#10;&#9;&#9;&#9;l0.28,0.161c9.5,5.485,12.755,17.632,7.27,27.132l-20.185,34.961C204.73,486.013,192.582,489.268,183.083,483.784z"/>
		<path style="fill:none;stroke:#000000;stroke-width:15;stroke-linecap:round;stroke-linejoin:round;stroke-miterlimit:10;" d="&#10;&#9;&#9;&#9;M217.343,464.324l9.615-16.653c5.529-9.577,17.775-12.858,27.352-7.329l0,0c9.577,5.529,12.858,17.775,7.329,27.352l-9.615,16.653&#10;&#9;&#9;&#9;c-5.529,9.577-17.775,12.858-27.352,7.329l0,0C215.095,486.147,211.814,473.901,217.343,464.324z"/>
	</g>
	<path style="fill:none;stroke:#000000;stroke-width:15;stroke-linecap:round;stroke-linejoin:round;stroke-miterlimit:10;" d="&#10;&#9;&#9;M299.042,462.902c10.661,6.155,14.314,19.788,8.159,30.449v0c-6.155,10.661-19.788,14.314-30.449,8.159l-25.938-15.309"/>
	<path style="fill:none;stroke:#000000;stroke-width:15;stroke-linecap:round;stroke-linejoin:round;stroke-miterlimit:10;" d="&#10;&#9;&#9;M340.637,435.439c10.661,6.155,14.314,19.788,8.159,30.449v0c-6.155,10.661-19.788,14.314-30.449,8.159l-32.274-18.616"/>
	<path style="fill:none;stroke:#000000;stroke-width:15;stroke-linecap:round;stroke-linejoin:round;stroke-miterlimit:10;" d="&#10;&#9;&#9;M366.264,398.758c10.661,6.155,14.314,19.788,8.159,30.449v0c-6.155,10.661-19.788,14.314-30.449,8.159l-38.608-22.29"/>
	<path style="fill:none;stroke:#000000;stroke-width:15;stroke-linecap:round;stroke-linejoin:round;stroke-miterlimit:10;" d="&#10;&#9;&#9;M341.389,332.926l52.27,30.178c10.661,6.155,14.314,19.788,8.159,30.449l0,0c-6.155,10.661-19.788,14.314-30.449,8.159&#10;&#9;&#9;l-38.684-22.334"/>
	<path style="fill:none;stroke:#000000;stroke-width:15;stroke-linecap:round;stroke-linejoin:round;stroke-miterlimit:10;" d="&#10;&#9;&#9;M442.348,211.377l-35.021,8.779c0,0-54.641,23.528-127.589,8.958c-15.537-3.416-32.911,2.016-40.721,6.525l-69.543,40.151&#10;&#9;&#9;c-12.334,7.121-16.56,22.893-9.439,35.227l0,0c7.121,12.334,22.893,16.56,35.227,9.439l46.903-27.079&#10;&#9;&#9;c26.34,28.566,52.755,43.407,99.224,39.549c13.829,7.984,52.27,30.178,52.27,30.178c27.13-3.244,28.529-4.96,48.689-20.655"/>
	<path style="fill:none;stroke:#000000;stroke-width:15;stroke-linecap:round;stroke-linejoin:round;stroke-miterlimit:10;" d="&#10;&#9;&#9;M69.655,342c0,0,22.306,11.996,26.8,21.956c4.747,10.623,8.838,34.802,16.495,40.745"/>
	<path style="fill:none;stroke:#000000;stroke-width:15;stroke-linecap:round;stroke-linejoin:round;stroke-miterlimit:10;" d="&#10;&#9;&#9;M224.943,243.765c-25.434-25.735-66.429-3.637-93.174-12.736l-27.226-8.808l-34.891-10.844"/>
	
		<polyline style="fill:none;stroke:#000000;stroke-width:15;stroke-linecap:round;stroke-linejoin:round;stroke-miterlimit:10;" points="&#10;&#9;&#9;488.939,299.73 488.939,363.811 442.345,363.811 442.345,192.994 488.939,192.994 488.939,267.044 &#9;"/>
	
		<polyline style="fill:none;stroke:#000000;stroke-width:15;stroke-linecap:round;stroke-linejoin:round;stroke-miterlimit:10;" points="&#10;&#9;&#9;23.061,294.75 23.061,363.811 69.655,363.811 69.655,192.994 23.061,192.994 23.061,262.065 &#9;"/>
	
		<polyline style="fill:none;stroke:#000000;stroke-width:15;stroke-linecap:round;stroke-linejoin:round;stroke-miterlimit:10;" points="&#10;&#9;&#9;162.826,131.613 224.942,69.616 256,100.674 349.174,7.5 &#9;"/>
	
		<polyline style="fill:none;stroke:#000000;stroke-width:15;stroke-linecap:round;stroke-linejoin:round;stroke-miterlimit:10;" points="&#10;&#9;&#9;318.116,7.5 349.174,7.5 349.174,38.558 &#9;"/>
	<g>
		<path style="fill:none;stroke:#000000;stroke-width:15;stroke-linecap:round;stroke-linejoin:round;stroke-miterlimit:10;" d="&#10;&#9;&#9;&#9;M117.023,61.235L117.023,61.235c1.397,4.656,5.682,7.844,10.543,7.844h7.548c6.729,0,12.183-5.455,12.183-12.183v0&#10;&#9;&#9;&#9;c0-6.728-5.455-12.183-12.183-12.183h-6.692c-6.728,0-12.183-5.455-12.183-12.183v0c0-6.728,5.455-12.183,12.183-12.183h5.979&#10;&#9;&#9;&#9;c4.861,0,9.146,3.188,10.543,7.844l0,0"/>
		
			<line style="fill:none;stroke:#000000;stroke-width:15;stroke-linecap:round;stroke-linejoin:round;stroke-miterlimit:10;" x1="131.768" y1="7.5" x2="131.768" y2="20.347"/>
		
			<line style="fill:none;stroke:#000000;stroke-width:15;stroke-linecap:round;stroke-linejoin:round;stroke-miterlimit:10;" x1="131.768" y1="69.079" x2="131.768" y2="81.926"/>
	</g>
</g>















</svg>
